<?xml version="1.0" encoding="utf-8"?>
<!-- Generator: Adobe Illustrator 24.3.0, SVG Export Plug-In . SVG Version: 6.00 Build 0)  -->
<svg version="1.1" id="Capa_1" xmlns="http://www.w3.org/2000/svg" xmlns:xlink="http://www.w3.org/1999/xlink" x="0px" y="0px"
	 viewBox="0 0 500 500" style="enable-background:new 0 0 500 500;" xml:space="preserve">
<style type="text/css">
	.st0{fill:#152052;}
</style>
<path class="st0" d="M404.6,121h-33.9C370.7,54.3,316.7,0.3,250,0.3S129.3,54.3,129.3,121H95.4c-43.2,0.1-78.2,35.1-78.4,78.4v147.9
	l0,0v0.7c0,0.2,0,0.5,0,0.7C17.8,432.1,86.2,500,169.7,500h160.6c83.5,0,151.9-67.9,152.7-151.3c0-0.2,0-0.5,0-0.7v-0.7l0,0V199.4
	C482.9,156.1,447.9,121.1,404.6,121z M250,58.7c34.4,0,62.3,27.9,62.3,62.3c0,0,0,0,0,0H187.7C187.7,86.6,215.6,58.7,250,58.7z"/>
</svg>
