<?xml version="1.0" encoding="utf-8"?>
<!-- Generator: Adobe Illustrator 24.3.0, SVG Export Plug-In . SVG Version: 6.00 Build 0)  -->
<svg version="1.1" id="Capa_1" xmlns="http://www.w3.org/2000/svg" xmlns:xlink="http://www.w3.org/1999/xlink" x="0px" y="0px"
	 viewBox="0 0 500 500" style="enable-background:new 0 0 500 500;" xml:space="preserve">
<style type="text/css">
	.st0{fill:#152052;}
</style>
<path class="st0" d="M459.9,338.1l-42.6-42.6c-1.8,6.7-4,13.2-6.6,19.7c-8.7,21.5-21.7,41-38.1,57.4c-4.1,4.1-8.4,8-12.8,11.6
	c-16.6,13.6-35.7,24.1-56.2,30.7c-2.7,0.9-5.4,1.7-8.1,2.4l42.6,42.6c12.8,12.7,33.4,12.7,46.2,0l75.5-75.5
	C471.7,371.7,471,351.4,459.9,338.1z M85.1,196.3c6.6-20.5,17-39.5,30.7-56.2c3.7-4.5,7.6-8.8,11.5-12.8
	c16.4-16.4,35.9-29.4,57.4-38.1c6.4-2.6,13-4.8,19.7-6.6L161.9,40c-12.8-12.7-33.4-12.7-46.2,0l-75.5,75.6
	c-12.7,12.8-12.7,33.4,0,46.2l42.6,42.6C83.5,201.7,84.3,198.9,85.1,196.3z"/>
<path class="st0" d="M83.3,297.8c-7.8-27.3-8.8-56.2-2.9-84c0.6-2.7,1.2-5.4,1.9-8l-58.2,15.6C6.7,226-3.6,243.9,1,261.3l27.7,103.2
	c4.7,17.4,22.6,27.7,40,23.1l58.2-15.6C106.3,351.3,91.4,325.8,83.3,297.8z M499,238.5l-27.6-103.2c-4.7-17.4-22.6-27.7-40-23.1
	l-58.2,15.6c43.3,43.6,60.2,106.9,44.6,166.3l58.1-15.6C493.3,273.8,503.6,255.9,499,238.5z"/>
<path class="st0" d="M278.6,475.8l15.6-58.2c-2.6,0.7-5.3,1.3-8,1.9c-57.2,12.2-116.8-5.3-158.3-46.5l-15.6,58.2
	c-4.6,17.4,5.7,35.3,23.1,40l103.2,27.7C256,503.5,273.9,493.2,278.6,475.8z M387.7,68.6c4.6-17.4-5.7-35.3-23.1-40L261.4,1
	c-17.4-4.6-35.3,5.7-40,23.1l-15.6,58.1c59.4-15.7,122.7,1.3,166.3,44.6L387.7,68.6z"/>
<path class="st0" d="M389,301.8c18.5-49.7,9.1-105.4-24.6-146.3c-3-3.6-6.2-7.1-9.5-10.5c-3.4-3.4-6.9-6.6-10.5-9.5
	c-63-52.1-156.4-43.3-208.6,19.7c-0.2,0.3-0.4,0.5-0.6,0.8c-10.3,12.6-18.5,26.8-24.2,42c-0.7,2-1.4,4-2.1,6
	c-1.6,4.9-2.9,9.9-4,14.9c-0.5,2.1-0.9,4.3-1.2,6.4c-7.1,42.4,4.5,85.8,31.9,119c3,3.6,6.2,7.1,9.5,10.5s6.9,6.6,10.5,9.5
	c33.2,27.4,76.6,39,119,31.9c2.1-0.4,4.3-0.8,6.4-1.2c5-1.1,10-2.4,14.9-4c2-0.6,4-1.3,6-2.1C342.2,373.9,373.9,342.1,389,301.8z
	 M195.8,304.1c-29.9-29.9-29.9-78.4,0-108.3s78.4-29.9,108.3,0s29.9,78.4,0,108.3c0,0,0,0,0,0C274.2,334,225.8,334,195.8,304.1
	L195.8,304.1z"/>
</svg>
