<?xml version="1.0" encoding="utf-8"?>
<!-- Generator: Adobe Illustrator 24.3.0, SVG Export Plug-In . SVG Version: 6.00 Build 0)  -->
<svg version="1.1" id="Capa_1" xmlns="http://www.w3.org/2000/svg" xmlns:xlink="http://www.w3.org/1999/xlink" x="0px" y="0px"
	 viewBox="0 0 500 500" style="enable-background:new 0 0 500 500;" xml:space="preserve">
<style type="text/css">
	.st0{fill:#152052;}
</style>
<path class="st0" d="M42.5,479c0,0.9-0.1,1.9-0.1,2.8c0-0.1,0-0.2,0-0.3C42.3,480.7,42.4,479.8,42.5,479z"/>
<path class="st0" d="M451.3,481.5c0,0.1,0,0.2,0,0.3c-0.1,10.1-6.2,18.2-13.7,18.2H56.1c-7.5,0-13.6-8.1-13.7-18.2
	c0-0.9,0.1-1.9,0.1-2.8c5.8-104.3,54.9-192.4,123.2-232c48.8,33.9,113.5,33.9,162.3,0c68.3,39.6,117.3,127.7,123.2,232
	C451.2,479.8,451.3,480.7,451.3,481.5z"/>
<path class="st0" d="M246.8,0c-71.9,0-130.2,58.3-130.2,130.2l0,0c0,4.4,0.2,8.7,0.7,12.9c2.1,20.6,9,40.5,20.3,57.9
	c10.4,15.9,24.1,29.4,40.2,39.6c42.2,26.4,95.9,26.4,138.1,0c16.1-10.1,29.8-23.6,40.2-39.6c11.3-17.4,18.2-37.2,20.3-57.9
	c0.4-4.3,0.6-8.6,0.6-12.9C377,58.3,318.8,0,246.8,0C246.9,0,246.8,0,246.8,0z M246.8,63c37.1,0,67.2,30.1,67.2,67.2
	s-30.1,67.2-67.2,67.2c-37.1,0-67.2-30.1-67.2-67.2C179.6,93.1,209.7,63,246.8,63C246.8,63,246.8,63,246.8,63z"/>
</svg>
