<?xml version="1.0" encoding="utf-8"?>
<!-- Generator: Adobe Illustrator 24.3.0, SVG Export Plug-In . SVG Version: 6.00 Build 0)  -->
<svg version="1.1" id="Capa_1" xmlns="http://www.w3.org/2000/svg" xmlns:xlink="http://www.w3.org/1999/xlink" x="0px" y="0px"
	 viewBox="0 0 500 500" style="enable-background:new 0 0 500 500;" xml:space="preserve">
<style type="text/css">
	.st0{fill:#152052;}
</style>
<path class="st0" d="M365.5,333l-86.9,150.4c-12.7,22.1-44.6,22.1-57.4,0L134.5,333C203,384.2,297,384.2,365.5,333z"/>
<path class="st0" d="M250,0C151.8,0,72.1,79.7,72.1,177.9c0,5.9,0.3,11.8,0.9,17.7c2.8,28.2,12.3,55.3,27.7,79.1
	c53.4,82.4,163.5,106,245.9,52.6c21-13.6,38.9-31.5,52.6-52.6c3.4-5.2,6.5-10.5,9.2-16.1c10-19.7,16.3-41,18.5-63
	c0.6-5.8,0.9-11.7,0.9-17.7C427.9,79.7,348.3,0,250,0C250,0,250,0,250,0z M250,269.7c-50.7,0-91.8-41.1-91.8-91.8
	c0-50.7,41.1-91.8,91.8-91.8s91.8,41.1,91.8,91.8c0,0,0,0,0,0C341.8,228.6,300.7,269.7,250,269.7z"/>
</svg>
